<svg version="1.2" xmlns="http://www.w3.org/2000/svg" viewBox="0 0 184 172" width="500" height="500">
	<title>chatBubble-person-svg</title>
	<style>
		.s0 { fill: #555555 } 
		.s1 { fill: #007c8c } 
		.s2 { fill: #cc0000 } 
		.s3 { fill: #cccccc } 
		.s4 { fill: #ffffff } 
		.s5 { fill: #990000 } 
		.s6 { fill: #44bb55 } 
		.s7 { fill: #ff9933 } 
	</style>
	<g id="chatBubble-person">
		<g id="Layer">
			<path id="Layer" fill-rule="evenodd" class="s0" d="m180-752v108c0 6.6-5.4 12-12 12h-132l-32 32v-152c0-6.6 5.4-12 12-12h152c6.6 0 12 5.4 12 12zm-114 29.9c0 14.4 11.6 26 26 26 14.4 0 26-11.6 26-26 0-14.4-11.6-26-26-26-14.4 0-26 11.6-26 26zm74 62.1c0-16-32-24.1-48-24.1-16 0-48 8.1-48 24.1v8h96z"/>
		</g>
	</g>
	<g id="chatBubble-person">
		<g id="Layer">
			<path id="Layer" fill-rule="evenodd" class="s1" d="m180-560v108c0 6.6-5.4 12-12 12h-132l-32 32v-152c0-6.6 5.4-12 12-12h152c6.6 0 12 5.4 12 12zm-114 29.9c0 14.4 11.6 26 26 26 14.4 0 26-11.6 26-26 0-14.4-11.6-26-26-26-14.4 0-26 11.6-26 26zm74 62.1c0-16-32-24.1-48-24.1-16 0-48 8.1-48 24.1v8h96z"/>
		</g>
	</g>
	<g id="chatBubble-person">
		<g id="Layer">
			<path id="Layer" fill-rule="evenodd" class="s2" d="m180-368v108c0 6.6-5.4 12-12 12h-132l-32 32v-152c0-6.6 5.4-12 12-12h152c6.6 0 12 5.4 12 12zm-114 29.9c0 14.4 11.6 26 26 26 14.4 0 26-11.6 26-26 0-14.4-11.6-26-26-26-14.4 0-26 11.6-26 26zm74 62.1c0-16-32-24.1-48-24.1-16 0-48 8.1-48 24.1v8h96z"/>
		</g>
	</g>
	<g id="chatBubble-person">
		<g id="Layer">
			<path id="Layer" fill-rule="evenodd" class="s3" d="m180-176v108c0 6.6-5.4 12-12 12h-132l-32 32v-152c0-6.6 5.4-12 12-12h152c6.6 0 12 5.4 12 12zm-114 29.9c0 14.4 11.6 26 26 26 14.4 0 26-11.6 26-26 0-14.4-11.6-26-26-26-14.4 0-26 11.6-26 26zm74 62.1c0-16-32-24.1-48-24.1-16 0-48 8.1-48 24.1v8h96z"/>
		</g>
	</g>
	<g id="chatBubble-person">
		<g id="Layer">
			<path id="Layer" fill-rule="evenodd" class="s4" d="m180 16v108c0 6.6-5.4 12-12 12h-132l-32 32v-152c0-6.6 5.4-12 12-12h152c6.6 0 12 5.4 12 12zm-114 29.9c0 14.4 11.6 26 26 26 14.4 0 26-11.6 26-26 0-14.4-11.6-26-26-26-14.4 0-26 11.6-26 26zm74 62.1c0-16-32-24.1-48-24.1-16 0-48 8.1-48 24.1v8h96z"/>
		</g>
	</g>
	<g id="chatBubble-person">
		<g id="Layer">
			<path id="Layer" fill-rule="evenodd" class="s5" d="m180 208v108c0 6.6-5.4 12-12 12h-132l-32 32v-152c0-6.6 5.4-12 12-12h152c6.6 0 12 5.4 12 12zm-114 29.9c0 14.4 11.6 26 26 26 14.4 0 26-11.6 26-26 0-14.4-11.6-26-26-26-14.4 0-26 11.6-26 26zm74 62.1c0-16-32-24.1-48-24.1-16 0-48 8.1-48 24.1v8h96z"/>
		</g>
	</g>
	<g id="chatBubble-person">
		<g id="Layer">
			<path id="Layer" fill-rule="evenodd" class="s6" d="m180 400v108c0 6.6-5.4 12-12 12h-132l-32 32v-152c0-6.6 5.4-12 12-12h152c6.6 0 12 5.4 12 12zm-114 29.9c0 14.4 11.6 26 26 26 14.4 0 26-11.6 26-26 0-14.4-11.6-26-26-26-14.4 0-26 11.6-26 26zm74 62.1c0-16-32-24.1-48-24.1-16 0-48 8.1-48 24.1v8h96z"/>
		</g>
	</g>
	<g id="chatBubble-person">
		<g id="Layer">
			<path id="Layer" fill-rule="evenodd" class="s7" d="m180 592v108c0 6.6-5.4 12-12 12h-132l-32 32v-152c0-6.6 5.4-12 12-12h152c6.6 0 12 5.4 12 12zm-114 29.9c0 14.4 11.6 26 26 26 14.4 0 26-11.6 26-26 0-14.4-11.6-26-26-26-14.4 0-26 11.6-26 26zm74 62.1c0-16-32-24.1-48-24.1-16 0-48 8.1-48 24.1v8h96z"/>
		</g>
	</g>
</svg>