<svg version="1.2" xmlns="http://www.w3.org/2000/svg" viewBox="0 0 137 176" width="500" height="540">
	<title>crossReference-svg</title>
	<style>
		.s0 { fill: #555555 } 
		.s1 { fill: #007c8c } 
		.s2 { fill: #cc0000 } 
		.s3 { fill: #cccccc } 
		.s4 { fill: #ffffff } 
		.s5 { fill: #990000 } 
		.s6 { fill: #44bb55 } 
		.s7 { fill: #ff9933 } 
	</style>
	<g id="crossReference">
		<g id="Layer">
			<path id="Layer" class="s0" d="m129.6-705.5q0.8-0.8 1.4-1.8 0.7-1 1.1-2.1 0.5-1 0.7-2.2 0.2-1.1 0.2-2.3v-26.1l-28 0.1v20.9l-36 36-36-36v-45h-28v50.3q0 1.2 0.2 2.3 0.3 1.2 0.7 2.2 0.4 1.1 1.1 2.1 0.6 1 1.4 1.8l45.6 46.3v20h-21l36 43 36-43h-21v-20z"/>
		</g>
	</g>
	<g id="crossReference">
		<g id="Layer">
			<path id="Layer" class="s1" d="m129.6-513.5q0.8-0.8 1.4-1.8 0.7-1 1.1-2.1 0.5-1 0.7-2.2 0.2-1.1 0.2-2.3v-26.1l-28 0.1v20.9l-36 36-36-36v-45h-28v50.3q0 1.2 0.2 2.3 0.3 1.2 0.7 2.2 0.4 1.1 1.1 2.1 0.6 1 1.4 1.8l45.6 46.3v20h-21l36 43 36-43h-21v-20z"/>
		</g>
	</g>
	<g id="crossReference">
		<g id="Layer">
			<path id="Layer" class="s2" d="m129.6-321.5q0.8-0.8 1.4-1.8 0.7-1 1.1-2.1 0.5-1 0.7-2.2 0.2-1.1 0.2-2.3v-26.1l-28 0.1v20.9l-36 36-36-36v-45h-28v50.3q0 1.2 0.2 2.3 0.3 1.2 0.7 2.2 0.4 1.1 1.1 2.1 0.6 1 1.4 1.8l45.6 46.3v20h-21l36 43 36-43h-21v-20z"/>
		</g>
	</g>
	<g id="crossReference">
		<g id="Layer">
			<path id="Layer" class="s3" d="m129.6-129.5q0.8-0.8 1.4-1.8 0.7-1 1.1-2.1 0.5-1 0.7-2.2 0.2-1.1 0.2-2.3v-26.1l-28 0.1v20.9l-36 36-36-36v-45h-28v50.3q0 1.2 0.2 2.3 0.3 1.2 0.7 2.2 0.4 1.1 1.1 2.1 0.6 1 1.4 1.8l45.6 46.3v20h-21l36 43 36-43h-21v-20z"/>
		</g>
	</g>
	<g id="crossReference">
		<g id="Layer">
			<path id="Layer" class="s4" d="m129.6 62.5q0.8-0.8 1.4-1.8 0.7-1 1.1-2.1 0.5-1 0.7-2.2 0.2-1.1 0.2-2.3v-26.1l-28 0.1v20.9l-36 36-36-36v-45h-28v50.3q0 1.2 0.2 2.3 0.3 1.2 0.7 2.2 0.4 1.1 1.1 2.1 0.6 1 1.4 1.8l45.6 46.3v20h-21l36 43 36-43h-21v-20z"/>
		</g>
	</g>
	<g id="crossReference">
		<g id="Layer">
			<path id="Layer" class="s5" d="m129.6 254.5q0.8-0.8 1.4-1.8 0.7-1 1.1-2.1 0.5-1 0.7-2.2 0.2-1.1 0.2-2.3v-26.1l-28 0.1v20.9l-36 36-36-36v-45h-28v50.3q0 1.2 0.2 2.3 0.3 1.2 0.7 2.2 0.4 1.1 1.1 2.1 0.6 1 1.4 1.8l45.6 46.3v20h-21l36 43 36-43h-21v-20z"/>
		</g>
	</g>
	<g id="crossReference">
		<g id="Layer">
			<path id="Layer" class="s6" d="m129.6 446.5q0.8-0.8 1.4-1.8 0.7-1 1.1-2.1 0.5-1 0.7-2.2 0.2-1.1 0.2-2.3v-26.1l-28 0.1v20.9l-36 36-36-36v-45h-28v50.3q0 1.2 0.2 2.3 0.3 1.2 0.7 2.2 0.4 1.1 1.1 2.1 0.6 1 1.4 1.8l45.6 46.3v20h-21l36 43 36-43h-21v-20z"/>
		</g>
	</g>
	<g id="crossReference">
		<g id="Layer">
			<path id="Layer" class="s7" d="m129.6 638.5q0.8-0.8 1.4-1.8 0.7-1 1.1-2.1 0.5-1 0.7-2.2 0.2-1.1 0.2-2.3v-26.1l-28 0.1v20.9l-36 36-36-36v-45h-28v50.3q0 1.2 0.2 2.3 0.3 1.2 0.7 2.2 0.4 1.1 1.1 2.1 0.6 1 1.4 1.8l45.6 46.3v20h-21l36 43 36-43h-21v-20z"/>
		</g>
	</g>
</svg>