<svg version="1.2" xmlns="http://www.w3.org/2000/svg" viewBox="0 0 175 167" width="500" height="500">
	<title>referenceDesign-svg</title>
	<style>
		.s0 { fill: #555555 } 
		.s1 { fill: #007c8c } 
		.s2 { fill: #cc0000 } 
		.s3 { fill: #cccccc } 
		.s4 { fill: #ffffff } 
		.s5 { fill: #990000 } 
		.s6 { fill: #44bb55 } 
		.s7 { fill: #ff9933 } 
	</style>
	<g id="referenceDesign">
		<g id="Layer">
			<path id="Layer" class="s0" d="m159-667.9v-70.1h-32l-22-27.2-24 30.3-24-30.2-22 27.1h-32v100h56v32l56-40-56-40.2v32.2h-40v-68h24l14-17.1 24 30.4 24.1-30.3 13.9 17h24v54.3c-9.5 4-14.8 14.1-12.7 24.2 2.1 10 11.1 17.2 21.3 17 10.3-0.1 19-7.5 20.8-17.7 1.8-10.1-3.8-20.1-13.4-23.7z"/>
		</g>
	</g>
	<g id="referenceDesign">
		<g id="Layer">
			<path id="Layer" class="s1" d="m159-475.9v-70.1h-32l-22-27.2-24 30.3-24-30.2-22 27.1h-32v100h56v32l56-40-56-40.2v32.2h-40v-68h24l14-17.1 24 30.4 24.1-30.3 13.9 17h24v54.3c-9.5 4-14.8 14.1-12.7 24.2 2.1 10 11.1 17.2 21.3 17 10.3-0.1 19-7.5 20.8-17.7 1.8-10.1-3.8-20.1-13.4-23.7z"/>
		</g>
	</g>
	<g id="referenceDesign">
		<g id="Layer">
			<path id="Layer" class="s2" d="m159-283.9v-70.1h-32l-22-27.2-24 30.3-24-30.2-22 27.1h-32v100h56v32l56-40-56-40.2v32.2h-40v-68h24l14-17.1 24 30.4 24.1-30.3 13.9 17h24v54.3c-9.5 4-14.8 14.1-12.7 24.2 2.1 10 11.1 17.2 21.3 17 10.3-0.1 19-7.5 20.8-17.7 1.8-10.1-3.8-20.1-13.4-23.7z"/>
		</g>
	</g>
	<g id="referenceDesign">
		<g id="Layer">
			<path id="Layer" class="s3" d="m159-91.9v-70.1h-32l-22-27.2-24 30.3-24-30.2-22 27.1h-32v100h56v32l56-40-56-40.2v32.2h-40v-68h24l14-17.1 24 30.4 24.1-30.3 13.9 17h24v54.3c-9.5 4-14.8 14.1-12.7 24.2 2.1 10 11.1 17.2 21.3 17 10.3-0.1 19-7.5 20.8-17.7 1.8-10.1-3.8-20.1-13.4-23.7z"/>
		</g>
	</g>
	<g id="referenceDesign">
		<g id="Layer">
			<path id="Layer" class="s4" d="m159 100.1v-70.1h-32l-22-27.2-24 30.3-24-30.2-22 27.1h-32v100h56v32l56-40-56-40.2v32.2h-40v-68h24l14-17.1 24 30.4 24.1-30.3 13.9 17h24v54.3c-9.5 4-14.8 14.1-12.7 24.2 2.1 10 11.1 17.2 21.3 17 10.3-0.1 19-7.5 20.8-17.7 1.8-10.1-3.8-20.1-13.4-23.7z"/>
		</g>
	</g>
	<g id="referenceDesign">
		<g id="Layer">
			<path id="Layer" class="s5" d="m159 292.1v-70.1h-32l-22-27.2-24 30.3-24-30.2-22 27.1h-32v100h56v32l56-40-56-40.2v32.2h-40v-68h24l14-17.1 24 30.4 24.1-30.3 13.9 17h24v54.3c-9.5 4-14.8 14.1-12.7 24.2 2.1 10 11.1 17.2 21.3 17 10.3-0.1 19-7.5 20.8-17.7 1.8-10.1-3.8-20.1-13.4-23.7z"/>
		</g>
	</g>
	<g id="referenceDesign">
		<g id="Layer">
			<path id="Layer" class="s6" d="m159 484.1v-70.1h-32l-22-27.2-24 30.3-24-30.2-22 27.1h-32v100h56v32l56-40-56-40.2v32.2h-40v-68h24l14-17.1 24 30.4 24.1-30.3 13.9 17h24v54.3c-9.5 4-14.8 14.1-12.7 24.2 2.1 10 11.1 17.2 21.3 17 10.3-0.1 19-7.5 20.8-17.7 1.8-10.1-3.8-20.1-13.4-23.7z"/>
		</g>
	</g>
	<g id="referenceDesign">
		<g id="Layer">
			<path id="Layer" class="s7" d="m159 676.1v-70.1h-32l-22-27.2-24 30.3-24-30.2-22 27.1h-32v100h56v32l56-40-56-40.2v32.2h-40v-68h24l14-17.1 24 30.4 24.1-30.3 13.9 17h24v54.3c-9.5 4-14.8 14.1-12.7 24.2 2.1 10 11.1 17.2 21.3 17 10.3-0.1 19-7.5 20.8-17.7 1.8-10.1-3.8-20.1-13.4-23.7z"/>
		</g>
	</g>
</svg>