<svg version="1.2" xmlns="http://www.w3.org/2000/svg" viewBox="0 0 192 185" width="510" height="500">
	<title>tools-svg</title>
	<style>
		.s0 { fill: #555555 } 
		.s1 { fill: #007c8c } 
		.s2 { fill: #cc0000 } 
		.s3 { fill: #cccccc } 
		.s4 { fill: #ffffff } 
		.s5 { fill: #990000 } 
		.s6 { fill: #44bb55 } 
		.s7 { fill: #ff9933 } 
	</style>
	<g id="tools">
		<g id="Layer">
			<path id="Layer" class="s0" d="m123-674.7q0.8-1.3 1.4-2.8 0.5-1.4 0.7-3 0.2-1.5 0.1-3-0.1-1.6-0.5-3.1l27.8-28.7 14.2-2.8 17.3-35.6-9.3-9.3-35.6 17.3-2.8 14.2-27.8 28.7q-1.4-0.4-2.8-0.5-1.5-0.1-2.9 0.1-1.4 0.2-2.8 0.6-1.3 0.4-2.6 1.1c3-8.5 3.4-17.6 1.2-26.3-2.2-8.6-6.8-16.5-13.4-22.6-6.6-6-14.8-10-23.6-11.5-8.8-1.5-17.9-0.4-26 3.2l-5.2 2.3 31.7 31.7-16.2 16.2-31.7-31.7-2.3 5.1c-3.5 8.1-4.6 17-3.3 25.6 1.4 8.7 5.2 16.8 11 23.3 5.8 6.6 13.4 11.4 21.8 13.8 8.5 2.4 17.4 2.3 25.8-0.2l-54.7 54.1c-1.4 1.4-2.6 3.1-3.3 5-0.8 1.8-1.2 3.8-1.2 5.8 0 2 0.4 4 1.2 5.9 0.7 1.8 1.9 3.5 3.3 4.9l5.4 5.4c1.4 1.4 3.1 2.6 4.9 3.3 1.9 0.8 3.9 1.2 5.9 1.2 2 0 4-0.4 5.8-1.2 1.9-0.7 3.6-1.8 5-3.3l56.6-55.9 55.9 55.9c1.4 1.4 3.1 2.6 5 3.3 1.8 0.8 3.8 1.2 5.8 1.2 2.1 0 4.1-0.4 5.9-1.2 1.9-0.7 3.6-1.9 5-3.3l5.4-5.4c1.4-1.4 2.6-3.1 3.3-5 0.8-1.8 1.2-3.8 1.2-5.8 0-2-0.4-4-1.2-5.9-0.7-1.9-1.9-3.6-3.3-5z"/>
		</g>
	</g>
	<g id="tools">
		<g id="Layer">
			<path id="Layer" class="s1" d="m123-482.7q0.8-1.3 1.4-2.8 0.5-1.4 0.7-3 0.2-1.5 0.1-3-0.1-1.6-0.5-3.1l27.8-28.7 14.2-2.8 17.3-35.6-9.3-9.3-35.6 17.3-2.8 14.2-27.8 28.7q-1.4-0.4-2.8-0.5-1.5-0.1-2.9 0.1-1.4 0.2-2.8 0.6-1.3 0.4-2.6 1.1c3-8.5 3.4-17.6 1.2-26.3-2.2-8.6-6.8-16.5-13.4-22.6-6.6-6-14.8-10-23.6-11.5-8.8-1.5-17.9-0.4-26 3.2l-5.2 2.3 31.7 31.7-16.2 16.2-31.7-31.7-2.3 5.1c-3.5 8.1-4.6 17-3.3 25.6 1.4 8.7 5.2 16.8 11 23.3 5.8 6.6 13.4 11.4 21.8 13.8 8.5 2.4 17.4 2.3 25.8-0.2l-54.7 54.1c-1.4 1.4-2.6 3.1-3.3 5-0.8 1.8-1.2 3.8-1.2 5.8 0 2 0.4 4 1.2 5.9 0.7 1.8 1.9 3.5 3.3 4.9l5.4 5.4c1.4 1.4 3.1 2.6 4.9 3.3 1.9 0.8 3.9 1.2 5.9 1.2 2 0 4-0.4 5.8-1.2 1.9-0.7 3.6-1.8 5-3.3l56.6-55.9 55.9 55.9c1.4 1.4 3.1 2.6 5 3.3 1.8 0.8 3.8 1.2 5.8 1.2 2.1 0 4.1-0.4 5.9-1.2 1.9-0.7 3.6-1.9 5-3.3l5.4-5.4c1.4-1.4 2.6-3.1 3.3-5 0.8-1.8 1.2-3.8 1.2-5.8 0-2-0.4-4-1.2-5.9-0.7-1.9-1.9-3.6-3.3-5z"/>
		</g>
	</g>
	<g id="tools">
		<g id="Layer">
			<path id="Layer" class="s2" d="m123-290.7q0.8-1.3 1.4-2.8 0.5-1.4 0.7-3 0.2-1.5 0.1-3-0.1-1.6-0.5-3.1l27.8-28.7 14.2-2.8 17.3-35.6-9.3-9.3-35.6 17.3-2.8 14.2-27.8 28.7q-1.4-0.4-2.8-0.5-1.5-0.1-2.9 0.1-1.4 0.2-2.8 0.6-1.3 0.4-2.6 1.1c3-8.5 3.4-17.6 1.2-26.3-2.2-8.6-6.8-16.5-13.4-22.6-6.6-6-14.8-10-23.6-11.5-8.8-1.5-17.9-0.4-26 3.2l-5.2 2.3 31.7 31.7-16.2 16.2-31.7-31.7-2.3 5.1c-3.5 8.1-4.6 17-3.3 25.6 1.4 8.7 5.2 16.8 11 23.3 5.8 6.6 13.4 11.4 21.8 13.8 8.5 2.4 17.4 2.3 25.8-0.2l-54.7 54.1c-1.4 1.4-2.6 3.1-3.3 5-0.8 1.8-1.2 3.8-1.2 5.8 0 2 0.4 4 1.2 5.9 0.7 1.8 1.9 3.5 3.3 4.9l5.4 5.4c1.4 1.4 3.1 2.6 4.9 3.3 1.9 0.8 3.9 1.2 5.9 1.2 2 0 4-0.4 5.8-1.2 1.9-0.7 3.6-1.8 5-3.3l56.6-55.9 55.9 55.9c1.4 1.4 3.1 2.6 5 3.3 1.8 0.8 3.8 1.2 5.8 1.2 2.1 0 4.1-0.4 5.9-1.2 1.9-0.7 3.6-1.9 5-3.3l5.4-5.4c1.4-1.4 2.6-3.1 3.3-5 0.8-1.8 1.2-3.8 1.2-5.8 0-2-0.4-4-1.2-5.9-0.7-1.9-1.9-3.6-3.3-5z"/>
		</g>
	</g>
	<g id="tools">
		<g id="Layer">
			<path id="Layer" class="s3" d="m123-98.7q0.8-1.3 1.4-2.8 0.5-1.4 0.7-3 0.2-1.5 0.1-3-0.1-1.6-0.5-3.1l27.8-28.7 14.2-2.8 17.3-35.6-9.3-9.3-35.6 17.3-2.8 14.2-27.8 28.7q-1.4-0.4-2.8-0.5-1.5-0.1-2.9 0.1-1.4 0.2-2.8 0.6-1.3 0.4-2.6 1.1c3-8.5 3.4-17.6 1.2-26.3-2.2-8.6-6.8-16.5-13.4-22.6-6.6-6-14.8-10-23.6-11.5-8.8-1.5-17.9-0.4-26 3.2l-5.2 2.3 31.7 31.7-16.2 16.2-31.7-31.7-2.3 5.1c-3.5 8.1-4.6 17-3.3 25.6 1.4 8.7 5.2 16.8 11 23.3 5.8 6.6 13.4 11.4 21.8 13.8 8.5 2.4 17.4 2.3 25.8-0.2l-54.7 54.1c-1.4 1.4-2.6 3.1-3.3 5-0.8 1.8-1.2 3.8-1.2 5.8 0 2 0.4 4 1.2 5.9 0.7 1.8 1.9 3.5 3.3 4.9l5.4 5.4c1.4 1.4 3.1 2.6 4.9 3.3 1.9 0.8 3.9 1.2 5.9 1.2 2 0 4-0.4 5.8-1.2 1.9-0.7 3.6-1.8 5-3.3l56.6-55.9 55.9 55.9c1.4 1.4 3.1 2.6 5 3.3 1.8 0.8 3.8 1.2 5.8 1.2 2.1 0 4.1-0.4 5.9-1.2 1.9-0.7 3.6-1.9 5-3.3l5.4-5.4c1.4-1.4 2.6-3.1 3.3-5 0.8-1.8 1.2-3.8 1.2-5.8 0-2-0.4-4-1.2-5.9-0.7-1.9-1.9-3.6-3.3-5z"/>
		</g>
	</g>
	<g id="tools">
		<g id="Layer">
			<path id="Layer" class="s4" d="m123 93.3q0.8-1.3 1.4-2.8 0.5-1.4 0.7-3 0.2-1.5 0.1-3-0.1-1.6-0.5-3.1l27.8-28.7 14.2-2.8 17.3-35.6-9.3-9.3-35.6 17.3-2.8 14.2-27.8 28.7q-1.4-0.4-2.8-0.5-1.5-0.1-2.9 0.1-1.4 0.2-2.8 0.6-1.3 0.4-2.6 1.1c3-8.5 3.4-17.6 1.2-26.3-2.2-8.6-6.8-16.5-13.4-22.6-6.6-6-14.8-10-23.6-11.5-8.8-1.5-17.9-0.4-26 3.2l-5.2 2.3 31.7 31.7-16.2 16.2-31.7-31.7-2.3 5.1c-3.5 8.1-4.6 17-3.3 25.6 1.4 8.7 5.2 16.8 11 23.3 5.8 6.6 13.4 11.4 21.8 13.8 8.5 2.4 17.4 2.3 25.8-0.2l-54.7 54.1c-1.4 1.4-2.6 3.1-3.3 5-0.8 1.8-1.2 3.8-1.2 5.8 0 2 0.4 4 1.2 5.9 0.7 1.8 1.9 3.5 3.3 4.9l5.4 5.4c1.4 1.4 3.1 2.6 4.9 3.3 1.9 0.8 3.9 1.2 5.9 1.2 2 0 4-0.4 5.8-1.2 1.9-0.7 3.6-1.8 5-3.3l56.6-55.9 55.9 55.9c1.4 1.4 3.1 2.6 5 3.3 1.8 0.8 3.8 1.2 5.8 1.2 2.1 0 4.1-0.4 5.9-1.2 1.9-0.7 3.6-1.9 5-3.3l5.4-5.4c1.4-1.4 2.6-3.1 3.3-5 0.8-1.8 1.2-3.8 1.2-5.8 0-2-0.4-4-1.2-5.9-0.7-1.9-1.9-3.6-3.3-5z"/>
		</g>
	</g>
	<g id="tools">
		<g id="Layer">
			<path id="Layer" class="s5" d="m123 285.3q0.8-1.3 1.4-2.8 0.5-1.4 0.7-3 0.2-1.5 0.1-3-0.1-1.6-0.5-3.1l27.8-28.7 14.2-2.8 17.3-35.6-9.3-9.3-35.6 17.3-2.8 14.2-27.8 28.7q-1.4-0.4-2.8-0.5-1.5-0.1-2.9 0.1-1.4 0.2-2.8 0.6-1.3 0.4-2.6 1.1c3-8.5 3.4-17.6 1.2-26.3-2.2-8.6-6.8-16.5-13.4-22.6-6.6-6-14.8-10-23.6-11.5-8.8-1.5-17.9-0.4-26 3.2l-5.2 2.3 31.7 31.7-16.2 16.2-31.7-31.7-2.3 5.1c-3.5 8.1-4.6 17-3.3 25.6 1.4 8.7 5.2 16.8 11 23.3 5.8 6.6 13.4 11.4 21.8 13.8 8.5 2.4 17.4 2.3 25.8-0.2l-54.7 54.1c-1.4 1.4-2.6 3.1-3.3 5-0.8 1.8-1.2 3.8-1.2 5.8 0 2 0.4 4 1.2 5.9 0.7 1.8 1.9 3.5 3.3 4.9l5.4 5.4c1.4 1.4 3.1 2.6 4.9 3.3 1.9 0.8 3.9 1.2 5.9 1.2 2 0 4-0.4 5.8-1.2 1.9-0.7 3.6-1.8 5-3.3l56.6-55.9 55.9 55.9c1.4 1.4 3.1 2.6 5 3.3 1.8 0.8 3.8 1.2 5.8 1.2 2.1 0 4.1-0.4 5.9-1.2 1.9-0.7 3.6-1.9 5-3.3l5.4-5.4c1.4-1.4 2.6-3.1 3.3-5 0.8-1.8 1.2-3.8 1.2-5.8 0-2-0.4-4-1.2-5.9-0.7-1.9-1.9-3.6-3.3-5z"/>
		</g>
	</g>
	<g id="tools">
		<g id="Layer">
			<path id="Layer" class="s6" d="m123 477.3q0.8-1.3 1.4-2.8 0.5-1.4 0.7-3 0.2-1.5 0.1-3-0.1-1.6-0.5-3.1l27.8-28.7 14.2-2.8 17.3-35.6-9.3-9.3-35.6 17.3-2.8 14.2-27.8 28.7q-1.4-0.4-2.8-0.5-1.5-0.1-2.9 0.1-1.4 0.2-2.8 0.6-1.3 0.4-2.6 1.1c3-8.5 3.4-17.6 1.2-26.3-2.2-8.6-6.8-16.5-13.4-22.6-6.6-6-14.8-10-23.6-11.5-8.8-1.5-17.9-0.4-26 3.2l-5.2 2.3 31.7 31.7-16.2 16.2-31.7-31.7-2.3 5.1c-3.5 8.1-4.6 17-3.3 25.6 1.4 8.7 5.2 16.8 11 23.3 5.8 6.6 13.4 11.4 21.8 13.8 8.5 2.4 17.4 2.3 25.8-0.2l-54.7 54.1c-1.4 1.4-2.6 3.1-3.3 5-0.8 1.8-1.2 3.8-1.2 5.8 0 2 0.4 4 1.2 5.9 0.7 1.8 1.9 3.5 3.3 4.9l5.4 5.4c1.4 1.4 3.1 2.6 4.9 3.3 1.9 0.8 3.9 1.2 5.9 1.2 2 0 4-0.4 5.8-1.2 1.9-0.7 3.6-1.8 5-3.3l56.6-55.9 55.9 55.9c1.4 1.4 3.1 2.6 5 3.3 1.8 0.8 3.8 1.2 5.8 1.2 2.1 0 4.1-0.4 5.9-1.2 1.9-0.7 3.6-1.9 5-3.3l5.4-5.4c1.4-1.4 2.6-3.1 3.3-5 0.8-1.8 1.2-3.8 1.2-5.8 0-2-0.4-4-1.2-5.9-0.7-1.9-1.9-3.6-3.3-5z"/>
		</g>
	</g>
	<g id="tools">
		<g id="Layer">
			<path id="Layer" class="s7" d="m123 669.3q0.8-1.3 1.4-2.8 0.5-1.4 0.7-3 0.2-1.5 0.1-3-0.1-1.6-0.5-3.1l27.8-28.7 14.2-2.8 17.3-35.6-9.3-9.3-35.6 17.3-2.8 14.2-27.8 28.7q-1.4-0.4-2.8-0.5-1.5-0.1-2.9 0.1-1.4 0.2-2.8 0.6-1.3 0.4-2.6 1.1c3-8.5 3.4-17.6 1.2-26.3-2.2-8.6-6.8-16.5-13.4-22.6-6.6-6-14.8-10-23.6-11.5-8.8-1.5-17.9-0.4-26 3.2l-5.2 2.3 31.7 31.7-16.2 16.2-31.7-31.7-2.3 5.1c-3.5 8.1-4.6 17-3.3 25.6 1.4 8.7 5.2 16.8 11 23.3 5.8 6.6 13.4 11.4 21.8 13.8 8.5 2.4 17.4 2.3 25.8-0.2l-54.7 54.1c-1.4 1.4-2.6 3.1-3.3 5-0.8 1.8-1.2 3.8-1.2 5.8 0 2 0.4 4 1.2 5.9 0.7 1.8 1.9 3.5 3.3 4.9l5.4 5.4c1.4 1.4 3.1 2.6 4.9 3.3 1.9 0.8 3.9 1.2 5.9 1.2 2 0 4-0.4 5.8-1.2 1.9-0.7 3.6-1.8 5-3.3l56.6-55.9 55.9 55.9c1.4 1.4 3.1 2.6 5 3.3 1.8 0.8 3.8 1.2 5.8 1.2 2.1 0 4.1-0.4 5.9-1.2 1.9-0.7 3.6-1.9 5-3.3l5.4-5.4c1.4-1.4 2.6-3.1 3.3-5 0.8-1.8 1.2-3.8 1.2-5.8 0-2-0.4-4-1.2-5.9-0.7-1.9-1.9-3.6-3.3-5z"/>
		</g>
	</g>
</svg>